# xmcd CD database file
#
# Track frame offsets:
#	150
#	11212
#	32980
#	50846
#	69957
#	121627
#	146423
#	194332
#	210558
#	227743
#	262026
#	273316
#	289383
#	322876
#
# Disc length: 4421 seconds
#
# Revision: 0
# Processed by: cddbd v1.5.1PL0 Copyright (c) Steve Scherf et al.
# Submitted via: CDex 1.50beta8
#
DISCID=d311430e
DTITLE=Jimi Hendrix - DOES EVERYBODY FEEL ALRIGHT?
DYEAR=1900
DGENRE=Rock
TTITLE0=Intro Jimi
TTITLE1=Fire
TTITLE2=Room Full of Mirrors
TTITLE3=Lover Man
TTITLE4=Hear My Train
TTITLE5=Ezy Rider
TTITLE6=Machine Gun
TTITLE7=Freedom
TTITLE8=Foxy Lady
TTITLE9=Red House
TTITLE10=SSB
TTITLE11=Purple Haze
TTITLE12=Voodo Child sr
TTITLE13=Outro MC
EXTD=
EXTT0=
EXTT1=
EXTT2=
EXTT3=
EXTT4=
EXTT5=
EXTT6=
EXTT7=
EXTT8=
EXTT9=
EXTT10=
EXTT11=
EXTT12=
EXTT13=
PLAYORDER=
